<?xml version="1.0" standalone="no"?>
<!DOCTYPE svg PUBLIC "-//W3C//DTD SVG 20010904//EN"
 "http://www.w3.org/TR/2001/REC-SVG-20010904/DTD/svg10.dtd">
<svg version="1.0" xmlns="http://www.w3.org/2000/svg"
 width="1280.000000pt" height="1280.000000pt" viewBox="0 0 1280.000000 1280.000000"
 preserveAspectRatio="xMidYMid meet">
<metadata>
Created by potrace 1.15, written by Peter Selinger 2001-2017
</metadata>
<g transform="translate(0.000000,1280.000000) scale(0.100000,-0.100000)"
fill="#000000" stroke="none">
<path d="M1860 12079 c-146 -16 -295 -63 -389 -122 l-52 -33 53 -35 c124 -80
142 -89 189 -89 33 0 58 8 94 31 58 37 117 59 154 59 25 -1 24 -2 -10 -20 -55
-29 -73 -64 -74 -141 0 -55 4 -72 27 -107 53 -80 114 -91 260 -49 48 14 121
31 163 38 130 22 265 -13 377 -99 44 -33 122 -121 115 -128 -2 -2 -24 7 -50
20 -158 81 -376 4 -447 -157 -19 -42 -31 -160 -17 -173 2 -2 31 8 63 23 53 25
69 28 169 28 92 -1 118 -4 155 -22 68 -33 137 -86 169 -129 71 -96 101 -276
83 -493 -29 -351 -94 -545 -357 -1066 -149 -295 -219 -422 -595 -1075 -147
-256 -296 -518 -331 -582 -35 -65 -67 -118 -71 -118 -13 0 127 377 252 680
176 427 256 665 302 895 18 88 22 144 22 280 0 156 -3 177 -27 258 -32 103
-73 188 -161 330 -117 190 -199 371 -213 473 -3 24 -8 44 -12 44 -3 0 -18 -19
-33 -43 -28 -43 -148 -164 -301 -300 -100 -90 -140 -143 -168 -224 -65 -191
-45 -445 76 -933 143 -576 167 -867 99 -1213 -20 -99 -38 -128 -27 -42 13 100
9 432 -6 510 -48 244 -130 405 -278 546 -130 124 -280 187 -416 176 -125 -11
-225 -74 -274 -175 -23 -47 -28 -70 -27 -127 1 -130 64 -226 242 -369 207
-166 297 -306 361 -561 60 -237 71 -658 32 -1202 -46 -642 -12 -1022 131
-1448 146 -437 239 -629 422 -873 96 -127 269 -309 381 -399 436 -352 1007
-547 1626 -556 l176 -2 6 -205 c18 -550 160 -1025 430 -1430 251 -376 636
-685 1072 -858 221 -88 468 -166 645 -203 339 -71 626 -81 1135 -42 313 24
871 24 1030 -1 214 -33 404 -102 524 -190 57 -42 180 -170 243 -253 54 -71
133 -137 196 -164 33 -14 68 -19 141 -19 90 0 101 2 142 29 99 62 149 160 149
290 0 42 -7 102 -16 132 -53 182 -238 370 -449 458 -184 77 -421 110 -649 92
-149 -13 -161 -13 -153 -5 24 24 268 55 437 55 260 0 425 -25 874 -137 281
-69 432 -95 601 -101 278 -10 377 25 522 185 162 178 248 264 304 306 l55 41
-72 18 c-135 33 -270 98 -494 237 -196 121 -327 160 -543 160 -276 0 -534 -67
-1027 -267 -484 -197 -803 -317 -823 -310 -6 2 38 29 97 60 60 32 319 179 576
327 657 379 828 473 1130 624 537 268 737 331 1095 343 302 11 444 -43 535
-203 68 -118 76 -253 21 -370 -16 -34 -27 -65 -23 -68 11 -11 99 -6 149 9 59
18 133 79 167 138 51 91 59 234 17 319 -11 23 -18 44 -15 47 2 3 37 -29 77
-70 148 -151 179 -296 115 -535 -39 -148 -45 -202 -24 -242 57 -111 244 -130
303 -32 9 17 20 30 24 30 13 0 -12 -85 -38 -130 -51 -90 -55 -101 -50 -141 5
-38 112 -219 129 -219 16 0 107 208 128 290 30 124 38 337 16 454 -114 600
-708 972 -1461 916 -435 -33 -840 -162 -1440 -458 -278 -138 -437 -222 -1077
-568 -543 -294 -599 -323 -790 -405 -257 -110 -385 -150 -276 -86 142 83 345
264 486 432 291 347 499 834 567 1325 22 164 21 462 -4 610 -84 509 -369 941
-832 1260 -79 54 -99 60 -99 31 0 -30 -65 -149 -128 -231 -31 -41 -149 -167
-262 -280 -216 -216 -256 -269 -297 -389 -39 -113 -27 -258 34 -421 13 -36 75
-171 138 -300 121 -251 171 -380 204 -531 98 -454 1 -827 -288 -1102 -153
-145 -352 -259 -589 -337 -150 -49 -223 -66 -368 -85 -411 -54 -825 50 -1189
299 -157 107 -267 225 -398 427 -92 140 -222 420 -252 539 -6 24 -6 24 10 5
190 -242 435 -417 711 -505 l71 -23 104 55 c57 31 150 79 206 107 l103 51
-138 187 -138 188 -105 7 c-220 14 -575 138 -697 243 -121 104 -226 339 -248
553 l-6 58 93 12 c289 38 600 135 879 273 264 131 485 295 741 549 279 277
452 517 610 845 138 287 217 581 238 885 10 136 -1 214 -12 92 -4 -40 -19
-128 -33 -195 -144 -685 -623 -1350 -1296 -1797 -296 -197 -625 -322 -1023
-391 -130 -22 -185 -24 -185 -6 1 52 57 353 86 456 119 426 307 759 641 1134
318 355 738 647 1158 803 133 49 382 110 508 125 56 6 104 14 107 17 10 10
-276 -8 -375 -23 -696 -108 -1367 -539 -1857 -1193 -259 -344 -425 -756 -503
-1247 -9 -55 -18 -101 -20 -103 -7 -7 -187 29 -266 54 -170 53 -310 147 -377
251 -94 147 -193 461 -210 667 l-7 89 -183 134 c-101 74 -185 133 -187 131
-16 -15 -205 -400 -205 -416 0 -35 49 -161 107 -275 92 -180 213 -335 343
-439 41 -34 77 -65 78 -69 4 -10 -107 29 -218 76 -298 125 -566 316 -711 506
-160 210 -274 459 -331 722 -19 88 -22 133 -23 322 0 251 15 351 87 570 170
522 493 840 923 910 170 28 379 16 570 -34 171 -44 285 -91 565 -232 363 -184
520 -212 698 -123 81 40 145 98 375 346 65 70 155 157 199 193 81 64 221 145
252 145 26 0 19 23 -32 101 -179 273 -450 518 -729 658 -165 83 -314 132 -508
168 -152 28 -503 25 -680 -5 -584 -100 -1071 -344 -1436 -718 -103 -107 -204
-233 -255 -320 -32 -54 -48 -57 -30 -6 83 232 218 520 413 877 603 1106 792
1482 931 1855 149 398 211 734 199 1070 -9 256 -49 427 -146 625 -170 348
-454 567 -801 620 -103 16 -165 17 -280 4z"/>
<path d="M3926 9153 c-16 -8 -72 -24 -124 -35 -86 -17 -131 -19 -446 -16 -340
3 -353 2 -416 -19 -144 -49 -273 -153 -377 -304 -28 -41 -127 -205 -219 -365
-187 -324 -575 -990 -609 -1044 -12 -19 -25 -42 -30 -50 -5 -8 38 32 95 89
221 221 495 410 770 531 155 68 303 115 540 170 567 132 707 198 769 366 20
51 24 89 31 284 8 213 21 307 55 393 9 21 -1 21 -39 0z"/>
<path d="M5525 7109 c-184 -19 -377 -89 -510 -183 -155 -111 -299 -314 -399
-563 -47 -118 -81 -233 -141 -482 -48 -202 -117 -412 -131 -398 -3 2 0 24 5
48 25 108 6 233 -51 321 -97 154 -267 211 -471 158 -410 -104 -750 -575 -817
-1130 -14 -118 -13 -211 6 -341 52 -374 249 -650 559 -783 133 -56 125 -57
125 13 0 94 27 279 60 406 117 453 413 933 806 1304 428 405 1036 701 1596
777 150 20 442 24 460 6 19 -19 15 -332 -6 -462 -104 -650 -481 -1329 -970
-1749 -349 -299 -746 -524 -1122 -635 -133 -40 -314 -76 -378 -76 -50 0 -86
-9 -86 -21 0 -32 71 -185 120 -258 138 -205 333 -327 622 -385 162 -33 465
-17 653 34 308 84 589 261 747 470 61 81 133 224 154 309 24 97 16 230 -18
303 -75 160 -256 252 -433 219 -37 -6 -70 -10 -72 -7 -15 15 173 74 467 147
409 102 596 183 806 350 333 265 426 713 300 1454 -41 244 -56 424 -56 677 1
128 5 267 10 308 4 41 7 76 5 78 -2 2 -92 -2 -202 -9 -289 -18 -512 -3 -909
62 -292 47 -526 59 -729 38z"/>
<path d="M996 5207 c-18 -257 28 -620 109 -862 219 -652 767 -1053 1584 -1160
63 -8 140 -15 170 -16 31 0 65 -4 76 -9 11 -5 18 -9 15 -9 -10 -2 -1126 -61
-1147 -61 -18 0 -52 -43 -173 -225 -82 -123 -150 -228 -150 -232 0 -5 73 -34
163 -66 89 -32 197 -71 240 -88 43 -16 86 -29 96 -29 9 0 213 79 452 176 239
96 483 195 543 219 61 25 112 42 115 39 3 -3 -1 -9 -9 -14 -8 -5 -445 -323
-970 -708 -850 -622 -956 -702 -967 -734 -6 -19 -60 -215 -119 -434 -58 -219
-109 -408 -112 -418 -4 -15 -1 -18 12 -13 9 4 87 25 174 48 86 22 189 49 227
59 328 87 434 114 457 118 22 3 144 164 739 978 391 536 714 973 716 970 5 -4
-44 -126 -299 -756 -66 -162 -124 -308 -130 -325 -8 -26 2 -61 72 -255 44
-124 85 -237 91 -252 l11 -27 226 151 c125 83 228 152 229 153 3 2 17 246 38
645 23 453 27 510 35 510 4 0 10 -55 13 -123 11 -217 63 -476 138 -678 215
-588 631 -942 1264 -1078 186 -40 494 -65 660 -54 l90 6 -95 24 c-467 114
-923 356 -1239 658 -435 414 -696 1050 -737 1793 l-7 122 -66 0 c-85 0 -296
24 -436 50 -409 77 -867 254 -1160 451 -460 309 -774 827 -923 1524 -7 35 -9
27 -16 -68z"/>
<path d="M9485 3604 c-81 -31 -195 -46 -400 -54 -242 -9 -278 -18 -354 -86
-90 -81 -151 -230 -231 -564 -111 -466 -136 -545 -250 -775 -126 -257 -287
-482 -482 -678 -54 -54 -95 -97 -91 -94 5 2 103 60 218 127 116 68 430 251
699 407 530 307 583 341 680 438 163 163 202 307 184 668 -14 282 6 499 57
597 9 17 14 30 13 29 -2 0 -21 -7 -43 -15z"/>
</g>
</svg>
